<svg width="48.000000" height="34.000000" viewBox="0 0 48 34" fill="none" xmlns="http://www.w3.org/2000/svg" xmlns:xlink="http://www.w3.org/1999/xlink">
	<defs>
		<clipPath id="clip6324_4048">
   <rect id="Frame 6080" rx="0" width="3.000000" height="27.000000" transform="translate(44.500000 3.500000)" fill="white" fill-opacity="0"/>
  </clipPath>
  <clipPath id="clip6324_4050">
    <rect id="Frame 6081" rx="0" width="3.000000" height="27.000000" transform="matrix(-1 0 0 1 4.5 3.5)" fill="white" fill-opacity="0"/>
  </clipPath>
	</defs>
	<rect id="Rectangle 6751" y="34.000000" rx="2.000000" width="33.999996" height="48.000000" transform="rotate(-90 0.000000 34.000000)" fill="#7E92AF" fill-opacity="1.000000"/>
	<path id="Rectangle 6787" d="M7 7L24 3L41 7L41 27L24 31L7 27L7 7Z" fill="#1952B6" fill-opacity="1.000000" fill-rule="nonzero"/>
	<g clip-path="url(#clip6324_4048)">
		<path id="Rectangle 6788" d="M44 7L61 3L78 7L78 27L61 31L44 27L44 7Z" fill="#1952B6" fill-opacity="1.000000" fill-rule="nonzero"/>
	</g>
	<g clip-path="url(#clip6324_4050)">
		<path id="Rectangle 6788" d="M4 7L-13 3L-30 7L-30 27L-13 31L4 27L4 7Z" fill="#1952B6" fill-opacity="1.000000" fill-rule="nonzero"/>
	</g>
	<circle id="Ellipse 66" r="15.000000" transform="matrix(1 -1.60812e-16 1.60812e-16 1 24 17)" fill="#7E92AF" fill-opacity="1.000000"/>
	<circle id="Ellipse 66" r="14.500000" transform="matrix(1 -1.60812e-16 1.60812e-16 1 24 17)" stroke="#1952B6" stroke-opacity="1.000000" stroke-width="1.000000"/>
</svg>
