<svg width="16" height="20" viewBox="0 0 16 20" fill="none" xmlns="http://www.w3.org/2000/svg">
<path fill-rule="evenodd" clip-rule="evenodd" d="M12.8 17.5997V7.99974L8 3.19974L1.6 3.19974C0.72 3.19974 -3.8466e-08 3.91974 0 4.79974L5.59506e-07 17.5997C5.97972e-07 18.4797 0.712 19.1997 1.592 19.1997H11.2C12.08 19.1997 12.8 18.4797 12.8 17.5997ZM11.2 17.5997H1.592L1.592 4.79974H7.2V8.79974H11.2L11.2 17.5997Z" fill="#1952B6"/>
<path d="M16 14.4017C15.9991 15.2809 15.2794 16 14.4 16L14.4 5.60006L10.4 1.6L3.2 1.6C3.2 0.72 3.92 0 4.8 0H11.2L16 4.8V14.4V14.4017Z" fill="#1952B6"/>
<path d="M3.2 11.1997H9.6V12.7997H3.2V11.1997Z" fill="#1952B6"/>
<path d="M3.2 14.3997H7.46667V15.9997H3.2V14.3997Z" fill="#1952B6"/>
</svg>
