<svg width="26" height="26" viewBox="0 0 26 26" fill="none" xmlns="http://www.w3.org/2000/svg">
<circle cx="13" cy="13" r="12" fill="#109CF8" stroke="#109CF8" stroke-width="2"/>
<path fill-rule="evenodd" clip-rule="evenodd" d="M18.4413 8.1029C18.2927 8.17218 17.0715 9.35083 14.6397 11.7717L11.057 15.3385L9.41311 13.7102C8.33487 12.6422 7.69969 12.053 7.56723 11.998C7.14085 11.8209 6.58342 11.9301 6.28375 12.2494C5.99355 12.5586 5.91509 13.0744 6.09893 13.464C6.24228 13.7679 10.3222 17.8068 10.6018 17.9216C10.874 18.0333 11.2256 18.0251 11.4926 17.9007C11.6423 17.831 13.0018 16.5126 15.7954 13.728C19.1036 10.4305 19.8921 9.61726 19.9463 9.44688C20.2359 8.53818 19.3 7.70247 18.4413 8.1029Z" fill="white"/>
</svg>
