<svg width="94.000000" height="105.000000" viewBox="0 0 94 105" fill="none" xmlns="http://www.w3.org/2000/svg" xmlns:xlink="http://www.w3.org/1999/xlink">
	<rect id="Rectangle 6853" x="13.000000" y="58.000000" width="68.000000" height="9.000000" fill="#5C7395" fill-opacity="1.000000"/>
	<path id="Vector 1779" d="M0 89L20 89L28 100L66 100L74 89L94 89L94 87L79 85L79 63L15 63L15 85L0 87L0 89Z" fill="#3B5274" fill-opacity="1.000000" fill-rule="evenodd"/>
	<circle id="Ellipse 23" cx="23.000000" cy="98.000000" r="7.000000" fill="#5C7395" fill-opacity="1.000000"/>
	<circle id="Ellipse 24" cx="7.000000" cy="98.000000" r="7.000000" fill="#5C7395" fill-opacity="1.000000"/>
	<circle id="Ellipse 25" cx="71.000000" cy="98.000000" r="7.000000" fill="#5C7395" fill-opacity="1.000000"/>
	<circle id="Ellipse 26" cx="87.000000" cy="98.000000" r="7.000000" fill="#5C7395" fill-opacity="1.000000"/>
	<path id="Subtract" d="M41 34L17 34L17 68C17 84.5684 30.4315 98 47 98C63.5685 98 77 84.5684 77 68L77 34L53 34C53 37.3135 50.3137 40 47 40C43.6863 40 41 37.3135 41 34Z" clip-rule="evenodd" fill="#5C7395" fill-opacity="1.000000" fill-rule="evenodd"/>
	<path id="Vector 1780" d="M17 46L77 46" stroke="#3B5274" stroke-opacity="1.000000" stroke-width="4.000000" stroke-dasharray="2 6"/>
	<path id="Vector 1781" d="M17 48L77 48" stroke="#3B5274" stroke-opacity="1.000000" stroke-width="1.000000"/>
	<path id="Rectangle 6854" d="M42 82L52 82L52 85C52 87.76 49.76 90 47 90C44.23 90 42 87.76 42 85L42 82Z" fill="#3B5274" fill-opacity="1.000000" fill-rule="evenodd"/>
	<rect id="badge-default" rx="12.500000" width="49.000000" height="25.000000" transform="translate(22.500000 0.500000)" fill="#CCD0D4" fill-opacity="1.000000"/>
	<path id="1" d="M55.93 12.73C54.27 12.73 53.37 11.55 53.37 10.16L53.37 9.54C53.37 8.13 54.3 6.96 55.93 6.96C57.6 6.96 58.49 8.13 58.49 9.54L58.49 10.16C58.49 11.56 57.58 12.73 55.93 12.73ZM31.17 11.23C31.16 8.89 32.91 7.19 35.52 7.2C37.91 7.21 40.16 8.66 40.16 12.87C40.17 16.82 38.31 19.16 35.43 19.16C33.1 19.16 31.51 17.67 31.29 15.71L33.71 15.71C33.9 16.56 34.54 17.05 35.43 17.05C36.95 17.05 37.75 15.64 37.76 13.33L37.68 13.33C37.16 14.36 36.02 14.98 34.75 14.98C32.68 14.98 31.18 13.41 31.17 11.23ZM51.27 13.19C51.27 17.02 49.5 19.25 46.57 19.25C43.64 19.25 41.87 17.01 41.87 13.19C41.88 9.37 43.66 7.2 46.57 7.2C49.49 7.2 51.28 9.38 51.27 13.19ZM55.61 19L54.13 19L62.13 7.36L63.61 7.36L55.61 19ZM55.93 8.41C55.25 8.41 55.03 9 55.03 9.54L55.03 10.16C55.03 10.71 55.26 11.27 55.93 11.27C56.62 11.27 56.83 10.71 56.83 10.16L56.83 9.54C56.83 8.98 56.64 8.41 55.93 8.41ZM37.51 11.16C37.5 10.05 36.66 9.13 35.54 9.13C34.39 9.13 33.55 10.03 33.56 11.17C33.56 12.31 34.38 13.19 35.51 13.19C36.64 13.19 37.52 12.27 37.51 11.16ZM44.38 13.19C44.37 15.87 45.24 17.21 46.57 17.21C47.91 17.21 48.77 15.87 48.76 13.19C48.76 10.55 47.9 9.22 46.57 9.22C45.25 9.22 44.39 10.55 44.38 13.19ZM61.9 19.4C60.24 19.4 59.34 18.21 59.34 16.81L59.34 16.2C59.34 14.8 60.26 13.62 61.9 13.62C63.58 13.62 64.47 14.79 64.47 16.2L64.47 16.81C64.47 18.21 63.55 19.4 61.9 19.4ZM61.9 15.07C61.22 15.07 60.99 15.64 60.99 16.2L60.99 16.81C60.99 17.35 61.21 17.93 61.9 17.93C62.6 17.93 62.8 17.37 62.8 16.81L62.8 16.2C62.8 15.64 62.62 15.07 61.9 15.07Z" fill="#001729" fill-opacity="1.000000" fill-rule="evenodd"/>
</svg>
