<svg width="16" height="16" viewBox="0 0 16 16" fill="none" xmlns="http://www.w3.org/2000/svg">
<path fill-rule="evenodd" clip-rule="evenodd" d="M14.1701 8C14.1701 8.272 14.1455 8.528 14.1126 8.784L15.8479 10.104C16.0042 10.224 16.0453 10.44 15.9466 10.616L14.3017 13.384C14.2277 13.512 14.0879 13.584 13.9481 13.584C13.8987 13.584 13.8494 13.576 13.8 13.56L11.7522 12.76C11.3245 13.072 10.8639 13.344 10.3622 13.544L10.0497 15.664C10.025 15.856 9.85231 16 9.6467 16H6.35693C6.15132 16 5.97861 15.856 5.95393 15.664L5.64141 13.544C5.13972 13.344 4.67915 13.08 4.25148 12.76L2.2036 13.56C2.16247 13.576 2.11313 13.584 2.06378 13.584C1.91574 13.584 1.77593 13.512 1.70191 13.384L0.0570213 10.616C-0.0416718 10.44 -0.000549714 10.224 0.155714 10.104L1.89107 8.784C1.85817 8.528 1.8335 8.264 1.8335 8C1.8335 7.736 1.85817 7.472 1.89107 7.216L0.155714 5.896C-0.000549714 5.776 -0.0498963 5.56 0.0570213 5.384L1.70191 2.616C1.80205 2.44282 2.01443 2.37867 2.2036 2.44L4.25148 3.24C4.67915 2.928 5.13972 2.656 5.64141 2.456L5.95393 0.336C5.97861 0.144 6.15132 0 6.35693 0H9.6467C9.85231 0 10.025 0.144 10.0497 0.336L10.3622 2.456C10.8639 2.656 11.3245 2.92 11.7522 3.24L13.8 2.44C13.9815 2.36941 14.207 2.45212 14.3017 2.616L15.9466 5.384C16.0453 5.56 16.0042 5.776 15.8479 5.896L14.1126 7.216C14.1455 7.472 14.1701 7.728 14.1701 8ZM12.5252 8C12.5252 7.832 12.517 7.664 12.4841 7.416L12.369 6.512L13.101 5.952L13.981 5.272L13.4053 4.304L12.3608 4.712L11.489 5.056L10.7405 4.496C10.4116 4.256 10.0826 4.072 9.72895 3.928L8.85716 3.584L8.5693 1.6H7.42611L7.26162 2.68L7.13003 3.584L6.25824 3.928C5.92104 4.064 5.58384 4.256 5.23018 4.512L4.48999 5.056L3.63465 4.72L2.59014 4.312L2.01443 5.28L2.90267 5.952L3.63465 6.512L3.5195 7.416C3.49483 7.656 3.47838 7.84 3.47838 8C3.47838 8.16 3.49483 8.344 3.5195 8.592L3.63465 9.496L2.90267 10.056L2.01443 10.728L2.59014 11.696L3.63465 11.288L4.50644 10.944L5.25486 11.504C5.58384 11.744 5.91281 11.928 6.26646 12.072L7.13825 12.416L7.42611 14.4H8.57753L8.74201 13.32L8.8736 12.416L9.74539 12.072C10.0826 11.936 10.4198 11.744 10.7734 11.488L11.5136 10.944L12.369 11.28L13.4135 11.688L13.9892 10.72L13.101 10.048L12.369 9.488L12.4841 8.584C12.5088 8.344 12.5252 8.168 12.5252 8ZM8.00182 4.8C6.18422 4.8 4.71205 6.232 4.71205 8C4.71205 9.768 6.18422 11.2 8.00182 11.2C9.81941 11.2 11.2916 9.768 11.2916 8C11.2916 6.232 9.81941 4.8 8.00182 4.8ZM6.35693 8C6.35693 8.88 7.09713 9.6 8.00182 9.6C8.9065 9.6 9.6467 8.88 9.6467 8C9.6467 7.12 8.9065 6.4 8.00182 6.4C7.09713 6.4 6.35693 7.12 6.35693 8Z" fill="#1952B6"/>
</svg>
