<svg width="56.000000" height="32.000000" viewBox="0 0 56 32" fill="none" xmlns="http://www.w3.org/2000/svg" xmlns:xlink="http://www.w3.org/1999/xlink">
	<rect id="Rectangle 6773" y="4.000000" width="56.000000" height="6.000000" fill="#1952B6" fill-opacity="1.000000"/>
	<rect id="Rectangle 6774" y="22.000000" width="56.000000" height="6.000000" fill="#1952B6" fill-opacity="1.000000"/>
	<rect id="Rectangle 6751" x="2.000000" rx="2.000000" width="52.000000" height="32.000000" fill="#70819A" fill-opacity="1.000000"/>
	<path id="Union" d="M7 4L14 4C14.55 4 15 4.44 15 5L15 7C15 7.55 14.55 8 14 8L12 8L12 24L14 24C14.55 24 15 24.44 15 25L15 27C15 27.55 14.55 28 14 28L7 28C6.44 28 6 27.55 6 27L6 5C6 4.44 6.44 4 7 4Z" fill="#1952B6" fill-opacity="1.000000" fill-rule="nonzero"/>
	<path id="Union" d="M49 4L42 4C41.44 4 41 4.44 41 5L41 7C41 7.55 41.44 8 42 8L44 8L44 24L42 24C41.44 24 41 24.44 41 25L41 27C41 27.55 41.44 28 42 28L49 28C49.55 28 50 27.55 50 27L50 5C50 4.44 49.55 4 49 4Z" fill="#1952B6" fill-opacity="1.000000" fill-rule="nonzero"/>
</svg>
