<svg width="24" height="24" viewBox="0 0 24 24" fill="none" xmlns="http://www.w3.org/2000/svg">
<path fill-rule="evenodd" clip-rule="evenodd" d="M7 3C5.06625 3 3.5 4.56625 3.5 6.5C3.5 8.43375 5.06625 10 7 10C8.93375 10 10.5 8.43375 10.5 6.5C10.5 4.56625 8.93375 3 7 3ZM17 3C15.0662 3 13.5 4.56625 13.5 6.5C13.5 8.43375 15.0662 10 17 10C18.9338 10 20.5 8.43375 20.5 6.5C20.5 4.56625 18.9338 3 17 3ZM12 9C10.0662 9 8.5 10.5662 8.5 12.5C8.5 14.4338 10.0662 16 12 16C13.9338 16 15.5 14.4338 15.5 12.5C15.5 10.5662 13.9338 9 12 9ZM12 16.875C9.66375 16.875 5 18.0475 5 20.375V23H19V20.375C19 18.0475 14.3363 16.875 12 16.875ZM7 10.875C7.14668 10.875 7.30254 10.8796 7.46584 10.8889C7.16691 11.5302 7 12.2455 7 13C7 13.9494 7.26425 14.8367 7.72324 15.5925C7.43679 15.6847 7.15451 15.7857 6.88016 15.8956C6.19938 16.1683 5.48693 16.5272 4.86064 17H0V14.375C0 12.0475 4.66375 10.875 7 10.875ZM19.1394 17H24V14.375C24 12.0475 19.3363 10.875 17 10.875C16.8533 10.875 16.6975 10.8796 16.5342 10.8889C16.8331 11.5302 17 12.2455 17 13C17 13.9494 16.7358 14.8367 16.2768 15.5925C16.5632 15.6847 16.8455 15.7857 17.1198 15.8956C17.8006 16.1683 18.5131 16.5272 19.1394 17Z" fill="#1952B6"/>
</svg>
