 <svg
    width="98.000000"
    height="35.000000"
    viewBox="0 0 98 35"
    fill="none"
    xmlns="http://www.w3.org/2000/svg"
    xmlns:xlink="http://www.w3.org/1999/xlink"
  >
    <defs>
      <clipPath id="clip321_107">
        <rect id="logo 17" width="98.000000" height="35.000000" fill="white" fill-opacity="0" />
      </clipPath>
      <radialGradient
        id="paint_radial_321_110_0"
        cx="0.000000"
        cy="0.000000"
        r="1.000000"
        gradientUnits="userSpaceOnUse"
        gradientTransform="translate(31.3622 16.9878) rotate(0) scale(16.6179 16.4919)"
      >
        <stop offset="0.520000" stop-color="#058BDF" />
        <stop offset="0.660000" stop-color="#0D65A4" />
        <stop offset="0.880000" stop-color="#009FFF" />
      </radialGradient>
    </defs>
    <rect id="logo 17" width="98.000000" height="35.000000" fill="#FFFFFF" fill-opacity="0" />
    <g clip-path="url(#clip321_107)">
      <path
        id="Vector"
        d="M1.66992 16.6796C1.66992 16.6796 12.1689 1.6886 30.8472 1.56897C43.3154 1.44934 58.3843 16.6759 58.3843 16.6759C58.3843 16.6759 45.3315 33.5267 30.6243 33.4398C15.917 33.3528 1.66992 16.6796 1.66992 16.6796Z"
        fill="#FFFFFF"
        fill-opacity="1.000000"
        fill-rule="nonzero"
      />
      <path
        id="Vector"
        d="M30.8472 1.56897C43.3154 1.44934 58.3843 16.6759 58.3843 16.6759C58.3843 16.6759 45.3315 33.5267 30.6243 33.4398C15.917 33.3528 1.66992 16.6796 1.66992 16.6796C1.66992 16.6796 12.1689 1.6886 30.8472 1.56897Z"
        stroke="#31343A"
        stroke-opacity="1.000000"
        stroke-width="0.160000"
      />
      <path
        id="Vector"
        d="M31.3623 0.727905C22.0579 0.727905 14.5142 8.21069 14.5142 17.4409C14.5142 22.2518 18.1306 28.5129 19.9976 30.3655C23.0112 33.1643 25.8022 33.1426 30.2554 33.1426C44.2432 30.3655 46.1099 30.3655 48.2139 17.4446C48.2139 8.21436 40.6704 0.731567 31.366 0.731567L31.3623 0.731567L31.3623 0.727905Z"
        fill="url(#paint_radial_321_110_0)"
        fill-opacity="1.000000"
        fill-rule="nonzero"
      />
      <path
        id="Vector"
        d="M29.5942 34.5093C15.3215 34.5093 1.57861 18.4198 0.972168 17.702L0.20874 16.7957L0.935791 15.8458C1.37402 15.2729 11.8474 1.77197 26.6609 0.238525C40.1079 -1.16089 45.6313 3.68628 55.6626 12.4778C56.8135 13.4857 58.0225 14.5479 59.3159 15.6609L60.3169 16.5201L59.5093 17.6295C59.0786 18.224 48.7402 32.1891 31.7021 34.3861C31.0007 34.4658 30.2957 34.5057 29.5942 34.5057L29.5942 34.5093ZM3.41626 16.7123C6.71484 20.2977 19.4204 33.099 31.4646 31.7032C44.897 29.9667 54.1577 20.2035 56.916 16.9335C56.0024 16.1431 55.1333 15.3782 54.293 14.6422C44.4004 5.97388 39.4395 1.61609 26.8582 2.92847C15.1353 4.14307 6.05005 13.656 3.4126 16.7123L3.41626 16.7123Z"
        fill="#323232"
        fill-opacity="1.000000"
        fill-rule="nonzero"
      />
      <path
        id="Vector"
        d="M43.5566 30.0211L43.3081 29.4374C43.3594 29.3903 47.458 24.0609 47.458 17.1619C47.458 10.2627 41.1089 4.42944 41.0542 4.38232L42.373 4.45117C42.6216 4.66516 48.9009 10.9298 48.9009 16.4839C48.9009 24.0283 43.7759 29.8108 43.5566 30.0248L43.5566 30.0211Z"
        fill="#323232"
        fill-opacity="1.000000"
        fill-rule="nonzero"
      />
      <path
        id="Vector"
        d="M20.9292 3.52661L21.8608 3.52661C21.8132 3.57373 15.2561 9.58105 15.3328 16.4838C15.4094 23.3611 19.9392 30.3182 19.9941 30.3654L19.0625 30.3654C18.8142 30.1515 14.4597 22.9624 14.4011 17.4082C14.3171 9.86377 20.7102 3.74048 20.9292 3.52661Z"
        fill="#323232"
        fill-opacity="1.000000"
        fill-rule="nonzero"
      />
      <path
        id="Vector"
        d="M30.8547 22.5891C28.1187 22.5891 25.9011 20.3885 25.9011 17.6731C25.9011 14.9576 28.1187 12.7571 30.8547 12.7571C33.0464 12.7571 34.8843 14.1818 35.5381 16.1395L39.3115 14.8779C38.1318 11.3612 34.7964 8.82349 30.8547 8.82349C25.9304 8.82349 21.9375 12.786 21.9375 17.6731C21.9375 22.5601 25.9304 26.5227 30.8547 26.5227C34.793 26.5227 38.1318 23.9849 39.3115 20.4683L35.5381 19.2067C34.8843 21.1643 33.0464 22.5891 30.8547 22.5891Z"
        fill="#323232"
        fill-opacity="1.000000"
        fill-rule="nonzero"
      />
      <path
        id="Vector"
        d="M27.0957 26.9867L26.0911 29.7419C27.0408 30.1045 28.0454 30.3583 29.0867 30.4961L29.0867 27.4036C29.4849 27.5377 26.9495 27.0483 27.092 26.9867L27.0957 26.9867Z"
        fill="#FF931E"
        fill-opacity="1.000000"
        fill-rule="nonzero"
      />
      <path
        id="Vector"
        d="M29.061 30.7063C28.0164 30.5686 26.9934 30.3112 26.0144 29.9414L25.8901 29.6731L26.8948 26.9142L26.9385 26.9287L27.0117 26.7909L27.1431 26.9142L27.2053 26.8199C27.3806 26.8997 28.9258 27.2078 29.1157 27.2151L29.1157 27.2332L29.156 27.2042L29.3423 27.4543L29.3022 27.4906L29.3022 30.4996L29.061 30.71L29.061 30.7063ZM26.365 29.6151C27.176 29.9087 28.0198 30.1227 28.8784 30.2495L28.8784 27.5994C28.4729 27.5414 27.6802 27.4181 27.2271 27.2549L26.3687 29.6151L26.365 29.6151Z"
        fill="#FF931E"
        fill-opacity="1.000000"
        fill-rule="nonzero"
      />
      <path
        id="Vector"
        d="M44.1558 17.412C44.1558 10.7086 39.1255 5.17993 32.6082 4.32434L32.6082 7.41675C37.4194 8.24341 41.0835 12.3981 41.0835 17.4084C41.0835 22.4187 37.4194 26.5734 32.6082 27.4L32.6082 30.4924C39.1255 29.6368 44.1558 24.1082 44.1558 17.4048L44.1558 17.412Z"
        fill="#FF931E"
        fill-opacity="1.000000"
        fill-rule="nonzero"
      />
      <path
        id="Vector"
        d="M32.6338 30.7063L32.3926 30.496L32.3926 27.3999L32.5679 27.1897C37.3755 26.363 40.8643 22.2483 40.8643 17.4048C40.8643 12.5612 37.3755 8.44641 32.5679 7.61975L32.3926 7.40955L32.3926 4.31348L32.6338 4.10315C39.3223 4.98047 44.3677 10.6941 44.3677 17.4011C44.3677 24.108 39.3223 29.8217 32.6338 30.6991L32.6338 30.7063ZM32.8201 27.5776L32.8201 30.2532C39.1802 29.2997 43.9438 23.8217 43.9438 17.4083C43.9438 10.995 39.1802 5.51709 32.8201 4.5636L32.8201 7.23914C37.7407 8.1709 41.2954 12.4198 41.2954 17.4083C41.2954 22.3969 37.7441 26.6459 32.8201 27.5776Z"
        fill="#FF931E"
        fill-opacity="1.000000"
        fill-rule="nonzero"
      />
      <path
        id="Vector"
        d="M29.0903 7.41687L29.0903 27.4037C29.6638 27.5016 30.2483 27.5631 30.8474 27.5631C31.4465 27.5631 32.031 27.5016 32.6045 27.4037L32.6045 7.41687C32.031 7.31897 31.4465 7.25732 30.8474 7.25732C30.2483 7.25732 29.6638 7.31897 29.0903 7.41687Z"
        fill="#FF931E"
        fill-opacity="1.000000"
        fill-rule="nonzero"
      />
      <path
        id="Vector"
        d="M30.8474 27.777C30.2776 27.777 29.6931 27.7227 29.0537 27.6139L28.8784 27.4036L28.8784 7.41675L29.0537 7.20654C30.3323 6.98535 31.3662 6.98535 32.6411 7.20654L32.8164 7.41675L32.8164 27.4036L32.6411 27.6139C32.0017 27.7227 31.4172 27.777 30.8474 27.777ZM29.3022 27.226C30.3945 27.3964 31.3005 27.3964 32.3926 27.226L32.3926 7.59802C31.3005 7.42761 30.3945 7.42761 29.3022 7.59802L29.3022 27.226Z"
        fill="#FF931E"
        fill-opacity="1.000000"
        fill-rule="nonzero"
      />
      <path
        id="Vector"
        d="M30.8474 27.563C30.2483 27.563 29.6638 27.5013 29.0903 27.4034L29.0903 30.4958C29.6675 30.572 30.252 30.6156 30.8474 30.6156C31.4429 30.6156 32.031 30.572 32.6045 30.4958L32.6045 27.4034C32.031 27.5013 31.4465 27.563 30.8474 27.563Z"
        fill="#FF931E"
        fill-opacity="1.000000"
        fill-rule="nonzero"
      />
      <path
        id="Vector"
        d="M30.8474 30.8295C30.2703 30.8295 29.6675 30.7897 29.061 30.7098L28.8748 30.4996L28.8748 27.4036L29.123 27.1932C30.3506 27.4036 31.3369 27.4036 32.5645 27.1932L32.8127 27.4036L32.8127 30.4996L32.6265 30.7098C32.02 30.7897 31.4172 30.8295 30.8401 30.8295L30.8474 30.8295ZM29.3022 30.3147C30.3542 30.438 31.3406 30.438 32.3926 30.3147L32.3926 27.6573C31.3076 27.8241 30.3909 27.8241 29.3022 27.6573L29.3022 30.3147Z"
        fill="#FF931E"
        fill-opacity="1.000000"
        fill-rule="nonzero"
      />
      <path
        id="Vector"
        d="M30.8474 7.2572C31.4465 7.2572 32.031 7.31885 32.6045 7.41675L32.6045 4.32422C32.0273 4.24805 31.4429 4.20459 30.8474 4.20459C30.252 4.20459 29.6638 4.24805 29.0903 4.32422L29.0903 7.41675C29.6638 7.31885 30.2483 7.2572 30.8474 7.2572Z"
        fill="#FF931E"
        fill-opacity="1.000000"
        fill-rule="nonzero"
      />
      <path
        id="Vector"
        d="M32.5681 7.62695C31.3406 7.41675 30.3542 7.41675 29.1267 7.62695L28.8784 7.41675L28.8784 4.32068L29.0647 4.11035C30.2776 3.95081 31.4209 3.95081 32.6338 4.11035L32.8201 4.32068L32.8201 7.41675L32.5718 7.62695L32.5681 7.62695ZM30.8474 7.04688C31.3406 7.04688 31.8484 7.08679 32.3926 7.17017L32.3926 4.51282C31.3406 4.38953 30.3542 4.38953 29.3022 4.51282L29.3022 7.17017C29.8464 7.08679 30.3542 7.04688 30.8474 7.04688Z"
        fill="#FF931E"
        fill-opacity="1.000000"
        fill-rule="nonzero"
      />
      <path
        id="Vector"
        d="M29.0903 4.32434L29.0903 7.42041C28.0273 7.60535 27.0154 8.06934 26.0911 8.55151C25.0867 9.17517 24.5862 9.54858 24.5862 9.54858L22.5769 7.07239C23.6326 6.23853 24.8125 5.56421 26.0911 5.07837C27.041 4.71594 28.0457 4.46216 29.0903 4.32434Z"
        fill="#FF931E"
        fill-opacity="1.000000"
        fill-rule="nonzero"
      />
      <path
        id="Vector"
        d="M24.7139 9.71521L24.4216 9.67896L22.4124 7.20288L22.4453 6.90552C23.5376 6.04272 24.7393 5.36121 26.0181 4.87903C26.9861 4.50916 28.0125 4.24817 29.0647 4.11401L29.3057 4.32434L29.3057 7.42041L29.1304 7.63062C28.0564 7.81555 27.0444 8.29407 26.197 8.73999C25.229 9.3418 24.7249 9.71521 24.7175 9.71887L24.7139 9.71887L24.7139 9.71521ZM22.8799 7.10132L24.6262 9.25488C24.8489 9.09888 25.2983 8.79077 25.9814 8.36658C26.8289 7.92432 27.8152 7.453 28.8784 7.23914L28.8784 4.5636C27.9468 4.70129 27.0334 4.94055 26.1714 5.27051C24.9988 5.71277 23.8918 6.3291 22.8799 7.10132Z"
        fill="#FF931E"
        fill-opacity="1.000000"
        fill-rule="nonzero"
      />
      <path
        id="Vector"
        d="M61 8.23767L64.4009 8.23767L64.4009 14.6486L68.1611 8.23767L71.6035 8.23767L67.7163 13.8879L71.9316 23.6027L68.4111 23.6027L65.6875 16.5297L64.4009 18.3802L64.4009 23.6027L61 23.6027L61 8.23767Z"
        fill="#323232"
        fill-opacity="1.000000"
        fill-rule="nonzero"
      />
      <path
        id="Vector"
        d="M82.7368 20.7198L85.0498 20.7198L85.0498 26.7198L82.5317 26.7198L82.2236 23.6027L72.209 23.6027L72.209 8.23767L75.6099 8.23767L75.6099 20.7198L79.3291 20.7198L79.3291 8.23767L82.73 8.23767L82.73 20.7198L82.7368 20.7198Z"
        fill="#323232"
        fill-opacity="1.000000"
        fill-rule="nonzero"
      />
      <!-- цифра 1 -->
      <!-- <path id="Vector" d="M92.6968 8.10193L95.2939 8.10193L95.2939 21.0901L97.8564 21.0901L97.8564 23.5994L89.2822 23.5994L89.2822 21.0901L91.8896 21.0901L91.8896 12.0171C91.1196 12.8116 90.2505 13.4534 89.2822 13.9424L89.2822 10.9373C90.6646 10.2174 91.8037 9.27002 92.6968 8.10193Z" fill="#323232" fill-opacity="1.000000" fill-rule="nonzero" /> -->
      <!-- цифра 2 -->
      <path id="Vector" d="M90.4941 13.6503L87.3975 13.0322C87.9038 9.67737 89.6113 8 92.5229 8C94.0967 8 95.291 8.43469 96.1123 9.30054C96.9331 10.1664 97.3438 11.2258 97.3438 12.4788C97.3438 13.7317 96.8887 15.0322 95.9819 16.2649C95.0752 17.5009 93.3716 18.9406 90.8667 20.5942L97.5596 20.5942L97.3096 23.5994L87.3975 23.5994L87.3975 20.5942C90.2339 18.1868 92.0029 16.4856 92.7041 15.4907C93.4058 14.4957 93.7583 13.5518 93.7583 12.6587C93.7583 11.382 93.2759 10.7437 92.3071 10.7437C91.7256 10.7437 91.2979 10.9949 91.0312 11.4974C90.7642 12 90.583 12.7164 90.4941 13.6469L90.4941 13.6503Z" fill="#323232" fill-opacity="1.000000" fill-rule="nonzero"/>
    </g>
  </svg>